<svg xmlns="http://www.w3.org/2000/svg" xmlns:xlink="http://www.w3.org/1999/xlink" width="24" height="24" viewBox="0 0 24 24">
  <defs>
    <clipPath id="clip-path">
      <rect id="Rectangle_17632" data-name="Rectangle 17632" width="24" height="24" transform="translate(162 602)" fill="#707070"/>
    </clipPath>
  </defs>
  <g id="Mask_Group_9" data-name="Mask Group 9" transform="translate(-162 -602)" clip-path="url(#clip-path)">
    <g id="__TEMP__SVG__" transform="translate(162 602)">
      <path id="Path_15311" data-name="Path 15311" d="M3,1.5H21A1.5,1.5,0,0,1,22.5,3V21A1.5,1.5,0,0,1,21,22.5H3A1.5,1.5,0,0,1,1.5,21V3A1.5,1.5,0,0,1,3,1.5ZM21,0a3,3,0,0,1,3,3V21a3,3,0,0,1-3,3H3a3,3,0,0,1-3-3V3A3,3,0,0,1,3,0Z" fill-rule="evenodd"/>
      <path id="Path_15312" data-name="Path 15312" d="M7.5,22.5V6H6V22.5ZM.75,6h22.5V4.5H.75ZM19.5,9.75A.75.75,0,0,0,18.75,9h-7.5a.75.75,0,0,0,0,1.5h7.5A.75.75,0,0,0,19.5,9.75Zm0,4.5a.75.75,0,0,0-.75-.75h-7.5a.75.75,0,0,0,0,1.5h7.5A.75.75,0,0,0,19.5,14.25Zm0,4.5a.75.75,0,0,0-.75-.75h-7.5a.75.75,0,0,0,0,1.5h7.5A.75.75,0,0,0,19.5,18.75Z" fill-rule="evenodd"/>
    </g>
  </g>
</svg>
